<svg width="24" height="24" viewBox="0 0 24 24" fill="none" xmlns="http://www.w3.org/2000/svg">
<path d="M13.5 9.5C13.5 10.0523 13.9477 10.5 14.5 10.5H23C23.5523 10.5 24 10.9477 24 11.5V12.5C24 13.0523 23.5523 13.5 23 13.5H14.5C13.9477 13.5 13.5 13.9477 13.5 14.5V23C13.5 23.5523 13.0523 24 12.5 24H11.5C10.9477 24 10.5 23.5523 10.5 23V14.5C10.5 13.9477 10.0523 13.5 9.5 13.5H1C0.447715 13.5 0 13.0523 0 12.5V11.5C0 10.9477 0.447715 10.5 1 10.5H9.5C10.0523 10.5 10.5 10.0523 10.5 9.5V1C10.5 0.447715 10.9477 0 11.5 0H12.5C13.0523 0 13.5 0.447715 13.5 1V9.5Z" fill="#FF8303"/>
</svg>
