<svg width="15" height="16" viewBox="0 0 15 16" fill="none" xmlns="http://www.w3.org/2000/svg">
<path d="M12.5553 10.9511C11.9642 10.9511 11.4353 11.1844 11.0309 11.55L5.48534 8.32222C5.52423 8.14333 5.55534 7.96444 5.55534 7.77778C5.55534 7.59111 5.52423 7.41222 5.48534 7.23333L10.9687 4.03667C11.3887 4.42556 11.9409 4.66667 12.5553 4.66667C13.8464 4.66667 14.8887 3.62444 14.8887 2.33333C14.8887 1.04222 13.8464 0 12.5553 0C11.2642 0 10.222 1.04222 10.222 2.33333C10.222 2.52 10.2531 2.69889 10.292 2.87778L4.80867 6.07444C4.38867 5.68556 3.83645 5.44444 3.22201 5.44444C1.93089 5.44444 0.888672 6.48667 0.888672 7.77778C0.888672 9.06889 1.93089 10.1111 3.22201 10.1111C3.83645 10.1111 4.38867 9.87 4.80867 9.48111L10.3464 12.7167C10.3076 12.88 10.2842 13.0511 10.2842 13.2222C10.2842 14.4744 11.3031 15.4933 12.5553 15.4933C13.8076 15.4933 14.8265 14.4744 14.8265 13.2222C14.8265 11.97 13.8076 10.9511 12.5553 10.9511Z" fill="#D9D9D9"/>
</svg>
