<svg width="21" height="13" viewBox="0 0 21 13" fill="none" xmlns="http://www.w3.org/2000/svg">
<path d="M20.5243 1.061C20.2881 1.80388 19.9696 2.4505 19.5706 3.03763L19.5872 3.01138C19.1952 3.66471 18.7271 4.41954 18.1828 5.27588C17.7161 5.95196 17.4691 6.30196 17.4417 6.32588C17.3209 6.47725 17.2369 6.66275 17.2081 6.86663L17.2072 6.87275C17.2308 7.05825 17.3166 7.22013 17.4417 7.34088L17.7917 7.73113C19.6642 9.65554 20.7174 10.982 20.9513 11.7106C20.9819 11.7911 20.9994 11.8839 20.9994 11.981C20.9994 12.1508 20.9452 12.3074 20.8533 12.436L20.8551 12.4334C20.7011 12.5918 20.4858 12.6898 20.2478 12.6898C20.2216 12.6898 20.1944 12.6889 20.1691 12.6863H20.1726H17.8704C17.8696 12.6863 17.8678 12.6863 17.8661 12.6863C17.5712 12.6863 17.2999 12.583 17.0873 12.4115L17.0899 12.4132C16.7802 12.1586 16.5046 11.883 16.2578 11.5838L16.2499 11.5733C15.8468 11.1177 15.4893 10.7341 15.1772 10.4226C14.1377 9.43446 13.3706 8.94038 12.8759 8.94038C12.8576 8.93863 12.8366 8.93775 12.8147 8.93775C12.6703 8.93775 12.5356 8.98238 12.4244 9.0585L12.4271 9.05675C12.3361 9.1705 12.2809 9.3175 12.2809 9.47588C12.2809 9.50738 12.2827 9.53713 12.2871 9.56775V9.56425C12.2634 9.839 12.2494 10.1584 12.2494 10.4813C12.2494 10.5854 12.2512 10.6886 12.2538 10.7919V10.777V11.7911C12.2626 11.8323 12.2678 11.8795 12.2678 11.9276C12.2678 12.1394 12.1716 12.3284 12.0211 12.4535L12.0202 12.4544C11.6816 12.6093 11.2861 12.7003 10.8687 12.7003C10.7794 12.7003 10.6919 12.6959 10.6053 12.688L10.6167 12.6889C9.23943 12.6626 7.96193 12.2593 6.87605 11.5794L6.90668 11.5969C5.58456 10.7936 4.48906 9.748 3.6543 8.5125L3.63068 8.47575C2.83793 7.424 2.09855 6.23575 1.46855 4.98275L1.4073 4.848C1.03893 4.14625 0.65743 3.2835 0.32843 2.39625L0.27593 2.23438C0.142055 1.83538 0.0449297 1.37163 0.00467969 0.891252L0.00292969 0.869377C0.00292969 0.42721 0.263096 0.206127 0.78343 0.206127H3.08468C3.10568 0.204377 3.13018 0.203502 3.15555 0.203502C3.37255 0.203502 3.57293 0.277877 3.7313 0.403002L3.72955 0.401252C3.90455 0.592877 4.03405 0.828251 4.09793 1.09075L4.10055 1.10125C4.52405 2.29738 4.97293 3.30188 5.48918 4.26438L5.43055 4.1445C5.8523 4.99325 6.31868 5.72388 6.85068 6.3985L6.83055 6.37138C7.29722 6.94421 7.66122 7.23063 7.92255 7.23063C7.93043 7.2315 7.94005 7.2315 7.95055 7.2315C8.08006 7.2315 8.19293 7.1615 8.25418 7.0565L8.25505 7.05475C8.3198 6.8885 8.35743 6.69513 8.35743 6.49388C8.35743 6.451 8.35568 6.40813 8.35218 6.36613V6.37138V2.97725C8.3338 2.57738 8.2358 2.20375 8.07218 1.86863L8.07918 1.88525C7.97068 1.65425 7.8403 1.45475 7.68543 1.27713L7.68805 1.28063C7.54455 1.13713 7.44655 0.949001 7.41593 0.739002L7.41505 0.733751C7.41505 0.585001 7.4833 0.451127 7.59005 0.363627L7.59093 0.362752C7.6968 0.265627 7.83855 0.207002 7.99343 0.207002H8.00043H11.6282C11.6474 0.204377 11.6693 0.203502 11.6921 0.203502C11.8627 0.203502 12.0158 0.280502 12.1173 0.401252L12.1182 0.402127C12.2083 0.566627 12.2617 0.763502 12.2617 0.971752C12.2617 1.005 12.2599 1.03738 12.2573 1.06975V1.06538V5.59175C12.2556 5.61275 12.2547 5.63725 12.2547 5.66175C12.2547 5.82275 12.2993 5.97413 12.3763 6.10275L12.3746 6.09925C12.4384 6.19375 12.5452 6.255 12.6659 6.255H12.6668C12.8208 6.2445 12.9608 6.19375 13.0789 6.11325L13.0763 6.115C13.3143 5.95138 13.5191 5.765 13.6967 5.55413L13.7002 5.54975C14.2313 4.9495 14.7213 4.28625 15.1483 3.581L15.1824 3.51975C15.4834 3.021 15.8089 2.40675 16.1038 1.77588L16.1581 1.64725L16.5483 0.866751C16.6839 0.476501 17.0479 0.201752 17.4758 0.201752C17.4924 0.201752 17.5091 0.201752 17.5257 0.202627H17.5231H19.8252C20.447 0.202627 20.6803 0.488752 20.5252 1.061H20.5243Z" fill="#F0E3CA"/>
</svg>
