<svg width="17" height="17" viewBox="0 0 17 17" fill="none" xmlns="http://www.w3.org/2000/svg">
<path d="M15.6401 3.985C13.1201 0.0999997 7.97513 -1.055 3.98513 1.36C0.100135 3.775 -1.15987 9.025 1.36013 12.91L1.57013 13.225L0.730135 16.375L3.88013 15.535L4.19513 15.745C5.56013 16.48 7.03013 16.9 8.50013 16.9C10.0751 16.9 11.6501 16.48 13.0151 15.64C16.9001 13.12 18.0551 7.975 15.6401 3.985ZM13.4351 12.07C13.0151 12.7 12.4901 13.12 11.7551 13.225C11.3351 13.225 10.8101 13.435 8.71013 12.595C6.92513 11.755 5.45513 10.39 4.40513 8.815C3.77513 8.08 3.46013 7.135 3.35513 6.19C3.35513 5.35 3.67013 4.615 4.19513 4.09C4.40513 3.88 4.61513 3.775 4.82513 3.775H5.35013C5.56013 3.775 5.77013 3.775 5.87513 4.195C6.08513 4.72 6.61013 5.98 6.61013 6.085C6.71513 6.19 6.71513 6.4 6.61013 6.505C6.71513 6.715 6.61014 6.925 6.50514 7.03C6.40014 7.135 6.29514 7.345 6.19014 7.45C5.98013 7.555 5.87513 7.765 5.98013 7.975C6.40013 8.605 6.92513 9.235 7.45013 9.76C8.08013 10.285 8.71013 10.705 9.44513 11.02C9.65513 11.125 9.86513 11.125 9.97013 10.915C10.0751 10.705 10.6001 10.18 10.8101 9.97C11.0201 9.76 11.1251 9.76 11.3351 9.865L13.0151 10.705C13.2251 10.81 13.4351 10.915 13.5401 11.02C13.6451 11.335 13.6451 11.755 13.4351 12.07Z" fill="#F0E3CA"/>
</svg>
