<svg width="10" height="10" viewBox="0 0 10 10" fill="none" xmlns="http://www.w3.org/2000/svg">
<path d="M4.29323 3.32263C4.68375 3.71316 5.31692 3.71316 5.70744 3.32263L7.90921 1.12086C8.17712 0.852951 8.6115 0.852951 8.87941 1.12086C9.14732 1.38878 9.14732 1.82315 8.87941 2.09106L6.67764 4.29283C6.28712 4.68336 6.28712 5.31652 6.67764 5.70705L8.87941 7.90881C9.14732 8.17673 9.14732 8.6111 8.87941 8.87901C8.6115 9.14693 8.17712 9.14693 7.90921 8.87901L5.70744 6.67725C5.31692 6.28672 4.68375 6.28672 4.29323 6.67725L2.09146 8.87901C1.82355 9.14693 1.38918 9.14693 1.12126 8.87901C0.853349 8.6111 0.853349 8.17673 1.12126 7.90881L3.32303 5.70705C3.71355 5.31652 3.71355 4.68336 3.32303 4.29283L1.12126 2.09106C0.853349 1.82315 0.853349 1.38878 1.12126 1.12086C1.38918 0.852951 1.82355 0.852951 2.09146 1.12086L4.29323 3.32263Z" fill="#FF8303"/>
</svg>
